<?xml version="1.0" encoding="UTF-8"?>
<svg xmlns="http://www.w3.org/2000/svg" viewBox="0 0 681.11 879">
  <g id="St_Philip" data-name="St Philip">
    <path d="M680.63,559.07c-.82-1.76-4.95-3.89-5.29-5.65-.46-2.37,3.43-5.76.25-11.31-2.56-4.47-7.68-.02-9.5-1.46-1.87-4.63-6.17-20-11.49-20.63-4.53-.54-8.22,3.64-6.87-5.97-4.91-4.14-9.69,2.38-16.07,3.01-8.85.86-12.3-4.56-17.18-4.81-1.59-.08-3.16,2.51-5.32,1.81,1.9-5.47-2.07-8.34-6.44-11.08-1.48-.92-3.6-.61-4.34-1.13-2.01-1.4-1.38-11.36-6.29-12.45l2.07-6.33c-1.79-.33-3.63,1.26-5.3.84-3.01-.74-6.67-9.62-10.23-6.91l-143.48,144.55-11.84,34.77,99.47,122.66c8.8-5.34,17.37-11.1,25.83-16.97,2.9-2.02,4.7-3.16,7.65-5.35,6.07-4.51,22.41-16.38,26.35-21.65,4.05-5.44,8.1-25.01,12.95-27.05,2.03-.86,5.26-.46,6.38-1.13,1.16-.69,13.52-19.74,15.05-22.44,1.92-3.38,2.61-8.07,4.72-11.28,2.82-4.3,8.77-7.53,12-11,3.76-4.06,14.24-18.54,16.64-23.36,2.46-4.93,2.4-10.12,4.42-14.58,1.54-3.4,5.48-5.93,6.82-9.18.91-2.23,1.06-7.75,1.78-8.71.65-.88,3.26-.7,3.68-1.33.5-.76-.11-3.51.36-5.13,1.16-3.96,6.69-9.88,8.08-15.93.98-4.22.31-7.83,1.13-11.87.94-4.66,6.1-8.51,4.05-12.92Z"/>
  </g>
  <g id="Christ_Church" data-name="Christ Church">
    <path d="M419.67,659.07l-265.54,131.48c0,2.88,26.09.7,29.32,1.69,2.57.78,2.82,4.86,5.37,5.63,3.85,1.15,9.46-.55,14.05,1.95,2.86,1.55,2.95,5.12,6.98,6.02,3.33.75,8.27-.54,10.68.15,1.13.32.08,2.73,2.27,3.9,3.85,2.05,14.67,2.18,19.57,4.43,5.35,2.46,3.88,6.11,13.22,5.75,17.29-.67,29.17-6.44,48.57-1.54,2.14.54,19.57,8.94,21,10.28,4.35,4.05,5.05,9.95,7.54,14.18,1.95,3.32,8.34,6.63,8.17,11.4-.07,2.03-2.52,5.38-2.35,7.17.07.7,7.16,10.83,8.07,11.53,1.67,1.29,16.89,6.01,18.95,5.92,3.91-.17,10.21-4.18,14.35-4.74,3.4-.46,5.2.83,7.67.73,12.51-.49,24.55-13.3,35.18-17.83,3.41-1.45,9.73-1.76,11.73-3.02,1.08-.68,2.09-5.16,3.22-7.03,3.07-5.12,19.29-29.94,22.49-32.5,2.49-1.99,10.81-2.01,14.95-3.05,16.17-4.07,31.27-20.88,44.99-29.53l-100.47-122.96Z"/>
  </g>
  <g id="St_Michael" data-name="St Michael">
    <path d="M205.13,562.05l-158.88,65.48c2.14,8.02,8.73,12.34,12.73,18.18,2.72,3.99,11.45,21.16,8.99,25.17-.72,1.17-9.27,2.5-9.75,4.77.73,1.81,1.24,5.49,3.41,5.5l7.87-1.02,2.63,4.42c-5.48-.15-7.2,4.96-13,5.51l5,15.98c-11.07-.92-8.61-5.75-10.49-14.01-.25-1.11,0-3.23-1.49-2.98.62,5.27-1.96,13.2,2.63,16.86,3.62,2.88,13.26,6.35,18.03,8.97,11.66,6.39,9.55,7.4,23.61,10.39,4.17.89,20.58,10.85,22.79,14.21.95,1.45,1.68,17.17,1.39,19.72-.36,3.14-4.29,11.6-7.99,11.78l-.33,4.94,38.2,12.9,99.57-48.86-44.91-177.91Z"/>
  </g>
  <g id="St_George" data-name="St George">
    <polygon points="330.61 490.05 291.5 527.9 208.3 561.64 253.15 737.05 419.96 654.36 430.65 621.1 330.61 490.05"/>
  </g>
  <g id="St_John" data-name="St John">
    <path d="M561.89,458.27c-.42.11-7.4,3.04-7.74,3.28-1.67,1.18-1.06,5.44-3.66,6.34-6.92,1.18-11.05-.17-16.37-4.31-4.93-3.84-7.64-10.4-11.46-13.54-2.69-2.22-8.19-3.07-9.55-4.45-1.7-1.72-.43-4.29-1.11-5.39-.38-.62-12.85-4.91-13.61-4.97-2.87-.25-4.59,2.52-7.53,1.69-1.87-.53-3.42-4.39-6.57-4l-.31-14.7c-3.21-.35-8.17-5.53-10.51-5.95-2.53-.45-4.41,4.07-11.05,2.01-1.6-.49-14.32-6.91-15.24-7.76-2.32-2.15-7.1-8.27-9.3-10.2-1.54-1.35-6.51-2.97-8.22-6.02l-95.57,95.21-.98,2.05,99.64,130.46,145.35-144.46c-6.75-4.58-5.79-18.1-16.21-15.28Z"/>
  </g>
  <g id="St_Thomas" data-name="St Thomas">
    <path d="M279.7,468.99l-49.2-51.8-69.99-31.02c-2.13-.45-1.01.22-1.37,1.35-3.02,9.64-8.56,32.4-13.16,39.86-7.79,12.64-30.61,27.79-40.35,40.64-.87,1.15-2.07,2.19-2.3,3.73l10.82,122.29,174.82-69.58c-3.67-18.31-3.86-37.69-9.27-55.47Z"/>
  </g>
  <g id="St_Joseph" data-name="St Joseph">
    <path d="M411.46,377.23c-2.83-1.44-11.02-6.52-13.03-6.97-3.63-.82-6.77.87-9.32.34-6.48-1.35-30-17.84-34.97-23.06-3.78-3.96-6.93-11.38-10.6-15.4-3.64-3.99-10.73-6.37-12.43-12.1l-73.64,58.34-24.11,37.17,50.18,53.57c4.49,15.66,4.13,33.6,7.58,49.42.29,1.35-.13,2.52,1.5,3.48l134.48-134.48c-4.39-6.77-9.62-7.25-15.66-10.32Z"/>
  </g>
  <g id="St_James" data-name="St James">
    <path d="M157.2,382.52l-8.06-59.47-124.93,35.57c3.94,12.34,7.6,23.57,5.86,36.84-1.08,8.25-7.41,12.52-5.85,22.03.41,2.51,2.27,4.18,2.72,6.27.58,2.75-.2,5.56.66,8.34,1.11,3.59,6.87,5.99,7.54,9.47,2.08,10.93-5.24,26.97-1.16,36.17,1.25,2.83,3.79,4.18,4.23,7.77.75,5.99-3.48,11.24-3.03,16.01.23,2.43,3.79,4.98,4.05,9.05.28,4.36-2.18,9.69-2.15,13.98.02,3.22,1.67,5.34,2,8.08,1.1,9.29-3.13,22.83-4.66,32.17-1.77,10.76.16,10.22,2.45,19.04.94,3.64.64,9.11,1.44,11.56.56,1.72,3.39,1.44,3.89,4.17.77,4.17-3.32,8.45-2.84,10.85.31,1.57,4.13,3.66,5.04,5.89,1.04,2.54-.22,7.13,2.25,6.76l64.33-27.17-10.81-125.32,44.03-46.97,13-41.09Z"/>
  </g>
  <g id="St_Andrew" data-name="St Andrew">
    <path d="M309.12,283.58c-4.47-5.8-15.08-15.53-18.02-20.98-1.78-3.31-.7-7.44-5.93-8.98-1.18-.35-8.61,2.48-9.59,3.37-1.24,1.13-2.05,9.47-3.95,6.09-3.6-6.42,5.5-8.8,5.5-10.52l-2.98-3.49,6.29,1.89,2.54-3.22-17.06-35.46c-2.81.37-8.46-3.09-10.3-2.89-1.72.18-2.82,4.94-5.46,1.17,1.43-1.98,4.01-2.72,5.59-4.48,4.75-5.27-1.79-8.5-3.16-12.97-.72-2.35-.1-4.9-.92-7.08-2.32-6.19-6.37-11.88-7.3-18.71-1.03-7.51,3.67-13.84-4.73-20.23l-73.43,96.55-13.86,77.93,8.01,59.79c.8,1.89,5.94,3.83,8.11,4.89,19.71,9.66,40.72,16.95,60.41,26.69l2.75-.87,24.99-37.03,72.25-58.46c-5.07-11.93-11.84-22.72-19.75-32.99Z"/>
  </g>
  <g id="St_Peter" data-name="St Peter">
    <path d="M232.16,132.47L21.59,212c-2.55,1-4.9,3.03-4.44,6.05l3.99-.99c1.81,2.16-5,27.58-5.07,32.5-.07,4.95,2.86,7.5,2.02,12.93-.4,2.62-2.87,4.95-2.87,7.07,0,2.34,3.41,6.22,3.75,9.27.41,3.75-1.3,8.66-.71,13.62,1.05,8.88,5.27,17.38,4.94,28.08-.09,3.06-2.34,5.77-2.14,9.04.17,2.81,3.48,6.61,3.97,11.1.53,4.87-.68,8.69-.88,13.39l125.03-34.46,14.57-78.43,73.95-97.14-5.54-11.54Z"/>
  </g>
  <g id="St_Lucy" data-name="St Lucy">
    <path d="M227.18,120.51c-3.15-3.53-9.95-2.7-8.04-9.47,7.55,1.41,8.01-1.59,10-7.98-5.91.29-5.28-6-6.99-7.52-2.33-2.07-14.51-.94-3.14-7.62l.17-1.32c-.14-.97-6.12-10.25-7.01-11.08-3.06-2.82-9.35-2.93-12.95-5.05-3.64-2.14-8.12-7.72-11.6-10.4-5.6-4.31-19.32-12.51-23.06-16.98-2.86-3.42,1.07-5.51.14-7.08-2.64-2.26-9.98-5.81-11.67-8.43-1.13-1.76.6-3.71.09-4.49-.6-.92-7.23-.94-9.04-1.5-8.3-2.58-15.77-14.57-16.88-15.03-.97-.41-2.79.71-4.29.31-1.98-.54-5.56-2.16-7.47-3.15-.37-.19-.74-1.79-1.97-2.47-7.14-3.97-10.18,2.79-17.06,2.49-1.86-.08-3.07-1.4-4.84-1.65-7.25-1.05-5.27,2.25-8.91,4.99-.54.41-11.62,5.59-12.28,5.76-2.95.75-5.15-.86-6.65-.58-1.8.34-2.59,4.03-4.83,5.06-3.3,1.51-7.38-.03-10.64,1.89.41,5.88-1.24,2.88-5.09,4.39-6.87,2.7-5.22,6.99-7.3,11.71-3.75,8.49-9.49,14.13-15.16,20.84-3.62,4.28-18.47,24.06-19.82,28.18-1.25,3.83-.9,8.26-.76,12.22.42,11.43,4.18,26.09,3.86,37.06-.07,2.3-2.47,4.64-2.89,7.92-1.53,11.94,2.57,19.85,6.06,29.99,1.9,5.51,1.91,11.43,3.43,16.57,2.18,7.39,5.94,14.38,7.54,21.97l212.99-81.02c-1.75-2.5-2-6.32-3.96-8.52Z"/>
  </g>
</svg>