<?xml version="1.0" encoding="UTF-8"?>
<svg xmlns="http://www.w3.org/2000/svg" viewBox="0 0 745.44 705.15">
  <g id="Tobago">
    <path d="M745.04,5.33c-.12-.2-2.73-1.53-3.84-2.7-1.04-1.1-.46-3.2-2.42-2.49-.81.3-1.58,2.18-3.25,2.75-1.35.46-6.74.51-7.27,1.24-.87,1.22,3.03,3.28,1.56,6-.75,1.38-9.81,5.74-11.39,4.8-.71-.42-1.61-4.27-5.12-5.36-6.56-2.04-7.07,1.35-10.79,2.32-2.22.57-4.78-.24-6.62.38-1.46.49-1.58,2.55-2.7,3.3-1.4.93-3.73.6-5.35,1.64-1.4.9-1.97,3.47-3.18,3.75-1.04.24-3.16-1.11-4.91-.92-2.39.26-1.98,2.96-4.41,3.65-2.4.69-9.71.1-10.06.47-.38.4.59,4.29-1.61,4.86-1.74.45-5.27-2.41-9.82.22-3.55,2.05-2.45,5.57-4.15,7.85-.56.74-12.3,10.81-13.92,12.07-3.14,2.43-6.09,1.47-8.93,3.08-2.98,1.69-5.9,8.44-10.68,11.32-2.18,1.32-4.97,1.02-6.97,3.03-2.1,2.11-3.38,7.79-5.92,10.08-1.44,1.29-3.98,1.57-4.56,2.44-.87,1.31-.09,3.72-1.39,5.6-1.21,1.74-4.92,2.24-5.08,2.47-.38.54,1.38,2.6.58,3.96-1.28,2.16-6.13,1.68-6.54,2.04-.3.27.03,2.14-.04,2.95-4.98,3.17-7.19-2.15-9.67-2.85-5.28-1.47-2.03,5.27-2.31,7.27-.35,2.5-4.14,4.83-.52,8.61,2.36,2.47,8.41-2,11.99-2.04.89-.01,8.28.95,8.88,1.15,2.95.97-.43,9.25,8.08,7.86,4.6-.75,3.06-5.41,3.6-5.96.52-.53,5.54.38,5.96-.04.62-.61-1.96-8.67,4.04-11.46,1.75-.82,3.85-.27,5.54-1.46,1.77-1.24,3.36-7.27,6.4-8.63,1.02-.45,4.08,1.98,6.01,2.54,1.2,2.05,2.37,4.63,5.67,4.8,3.16.17,3.63-2.63,4.33-3.8,4.67-.57,5.59.72,6-4,.03-.33-.04-.67,0-1,1.98.08,3.08-.98,3-3,6.91-1.27,12.71.59,18.55.98.54.04,8.26-.83,8.74-.96.97-.26,8.91-11.55,13.8-14.42,2.7-1.59,10.92-3.78,11.49-4.58,1.08-1.53-1.74-7.43,5.05-10.88,7-3.56,14.53,2.6,18.38-.62,2.47-2.07.09-7.05-1-9.5,5.01-1.64,6.58,5.15,10.78,3.75.25-.08,2.84-3.57,3-4.44.78-4.36-.21-9.32,1.33-13.83-.19-2.53-4.14-1.98-4.15-4.99-.01-3.4,5.79-3.95,6.08-5.16.3-1.25.1-13.52-.26-14.13Z" fill="#087687"/>
  </g>
  <g id="Point_Fortin" data-name="Point Fortin">
    <path d="M144.25,621.13c4.89,7.78,3.87,12.2-1.49,19.01-8.02,10.19-22.25,17.91-27.51.99,3.55-1.58,11.2-8.15,5.01-10.01v-.97c1.43.37,1.73-1.34,2.33-1.67,5.36-2.98,14.82-3.45,21.66-7.35Z" fill="#76b7c1"/>
  </g>
  <g id="Siparia">
    <path d="M144.25,621.13c2.31-1.32,10.15-7.9,11.41-10.09,3.16-5.48-.52-5.78-1.25-9.66-1.41-7.55,9.56-9.52,15.13-8.22.71.17.7,1.65,1.48,1.88,14.35,4.37,22.17,11.33,38.49,8.84,5.5-.84,9.12-4.37,13.74-6.76,2.86,11.79,9.54,12.94,19.52,16.98,1.37,5.33-.2,11.08.57,16.43.51,3.56,3.35,6.33,3.6,9.22.42,4.81-11.81,13.22-15.2,17.35-8.12,9.88-4.61,13.99-6.54,25.45-.41,2.45-3.21,4.02-.95,7.56-2.53-.54-10.65-2.9-11.55-2.96-3.33-.23-8.99,2.65-12.96,2.95-4.86.37-9.85-1.71-13.94-.96-2.48.46-5.08,3.46-8.32,3.78-2.54.26-4.63-1.14-6.55-.86-.62.09-6.65,7.14-10.21,7.03-1.9-.06-2.64-2.34-4.17-2.8-2.58-.77-5.34.42-8.27-.73-3.66-1.44-9.56-9.91-10.7-10.3-2.71-.93-6.92.58-9.71-.33-1.31-.43-1.38-2.24-2.34-2.89-2.97-2.02-6.81.68-9.95.69-8.52.03-18.06-2.32-26.33.87-2.69,1.04-5.64,4.33-8.59,4.48-4.33.22-6.94-4.57-11.42-5.48-12.37-2.52-15.89,4.93-24.77,9.22-5.31,2.57-11.7,3.1-16.95,6.01-2.2,1.22-3.3,3.54-7.01,5.04-6.33,2.56-23.51,5.22-20.08-6.07.22-.73,9.21-10.65,10.11-11.4,10.93-9.04,28.65-2.57,39.34-13.67,4.86-5.05,3.4-7.02,4.79-12.71,1.69-6.89,7.18-2.64,12.62-4.38,4.59-1.47,5.85-7.45,12.55-7.45,10.78,0,25.26-1.61,35.39-6.11,5.26,16.92,19.5,9.2,27.51-.99,5.36-6.81,6.38-11.24,1.49-19.01Z" fill="#c2e6eb"/>
  </g>
  <g id="Penal_Debe" data-name="Penal Debe">
    <path d="M296.22,620.61c.43-2.19-.67-14.64-1.48-16.47-.81-1.81-7.31-7.94-9.45-8.55-5.14-1.48-12.01.97-16.43-1.57-2.4-1.38-8.58-10.65-9.61-10.89-2.84-.67-4.76,1.68-7.45,2.05-3.21.44-7.21-.4-10.55-.05-.1.29-3.18,4.5-3.61,4.89-2.66,2.48-9.13,3.58-12.68,5.36-1.06.53-1.51,1.64-1.71,1.75,2.86,11.79,9.54,12.94,19.52,16.98,1.37,5.33-.2,11.08.57,16.43.51,3.56,3.35,6.33,3.6,9.22.42,4.81-11.81,13.22-15.2,17.35-8.12,9.88-4.61,13.99-6.54,25.45-.41,2.45-3.21,4.02-.95,7.56,13.16,2.81,20.55.05,33.51-.99,10.22-.82,18.97-1.41,28.77.21,4,.66,2.33,1.39,7.72.78,2.16-3.67-4-8-4-8.5v-45c0-.38-1.01-1.69-1.07-3-.41-8.23,6.17-8.54,7.05-13.02Z" fill="#104852"/>
  </g>
  <g id="San_Fernando" data-name="San Fernando">
    <path d="M250.25,568.13c2.76-8.13,3.99,1.56,5.22,2.78,2.24,2.23,7.76-.35,5.76,8.52-.16.69-3.13,1.02-1.97,3.69-2.84-.67-4.76,1.68-7.45,2.05-3.21.44-7.21-.4-10.55-.05.19-.52-.19-1.51,0-2,2.08-1.68,3.67-4.08,5.36-6.14.58-.71.42-2.21.91-2.65.71-.64,2.37,0,2.72-.23.21-.13-.41-2.74,0-4.98.06-.34-.09-.73,0-1Z" fill="#038ea0"/>
  </g>
  <g id="Mayaro_-_Rio_Claro" data-name="Mayaro - Rio Claro">
    <path d="M507.22,542.63c-1.12.75.08,2.77-3.41,2.57-4.9-.29-7.6-4.65-9.35-8.78-5.93-14-11.36-26.32-15.21-41.29l-44.54,2.04c-4.12.39-9.2-3.12-12.87-2.98-6.77.26-11.41,11.16-15.94,10.74-1.66-.16-18.22-14.46-18.66-15.79-4.54.95-7,4.54-8.97,8.52,1.43,10.59.26,21.4.98,31.97.33,4.8,3.34,9.55,1.78,14.81-.78,2.64-14.93,11.1-14.79,16.7,0,.31,1.24,5.11,1.5,6,.59,2.06,5.2,12.85,6.47,13.54,4.11,2.22,3.51-4.33,8.52-4.64,1.7-.1,11.29,2.61,11.55,3.75.3,15.21,3.21,31.76,2,46.88-.55,6.83-4.33,9.93.91,17.01l1.05,42.45c6.87.28,7.4,4.26,16.34-.16,5.38-2.66,7.74-2.64,11.64-4.36,1.61-.71,3.15-3.9,5.08-4.92,2.79-1.47,12.92-6.37,15.66-7.34,4.77-1.69,11.7-1.24,15.26-2.74,3.07-1.3,6.05-8.62,8.36-11.14,5.81-6.32,27.08-18.49,25.66-1.35,9.35-.8.31-13.03-.77-18.73-2.59-13.64.27-23.06.81-35.72.38-9-.91-19.16.06-27.94.43-3.83,5.5-22.57,9.36-22.62,1.87-.02,3.52,2.59,5.53,1.59,4.73-2.37.85-11.31-4.02-8.06Z" fill="#3c4142"/>
  </g>
  <g id="Princess_Town" data-name="Princess Town">
    <path d="M397.2,643.68c-5.24-7.08-1.45-10.18-.91-17.01,1.21-15.12-1.7-31.66-2-46.88-.26-1.15-9.85-3.86-11.55-3.75-5.01.31-4.41,6.85-8.52,4.64-1.28-.69-5.88-11.49-6.47-13.54-.26-.9-1.49-5.7-1.5-6-11.16-.02-23.27-18.73-34.26-15.76-2.56.69-4.39,3.85-8.14,3.72-4.13-.15-6.66-4.02-9.35-4.74-6.29-1.67-10.1,4.57-15.42,6.1-3.91,1.13-9.19-.14-11.84,1.16-2.06,1.01-3.84,7.16-7.53,7.54-4.32.44-6.03-4.64-9.02-5.07-2.49-.36-8.87,3.84-13.92,4.09-1.99.1-9.89.51-9.52-3.05-2.48,6.88,1.47,4.85,2.81,8.7,1.48,4.28-4.55,3.76.19,4.3,2.76-8.13,3.99,1.56,5.22,2.78,2.24,2.23,7.76-.35,5.76,8.52-.16.69-3.13,1.02-1.97,3.69,1.03.24,7.21,9.51,9.61,10.89,4.42,2.54,11.29.09,16.43,1.57,2.14.61,8.65,6.75,9.45,8.55.82,1.83,1.91,14.28,1.48,16.47-.88,4.48-7.46,4.79-7.05,13.02.07,1.3,1.07,2.62,1.07,3v45c0,.5,6.16,4.83,4,8.5,7.14-.81,16.73.08,22.48-1.02,2.46-.47,3.53-3.16,6.23-3.77,3.13-.71,6.54.22,9.68-.32,6.56-1.12,10.72-3.9,18.06-2.83,6.81.99,11.46,2.41,17.74,4.26,2.95.87,9.49,2.53,12.35,2.7,6.09.37,11.7-3.25,17.47-3.02l-1.05-42.45Z" fill="#2dd9ea"/>
  </g>
  <g id="Couva_-_Tabaquite_-_Talparo" data-name="Couva - Tabaquite - Talparo">
    <path d="M387.25,489.13c-.38-1.15.16-6.09-1.13-6.87-2.13-1.29-6.88,2.23-7.82-4.72-1.34-9.86,8.6-18.7,8.76-26.1.12-5.64-11.19-.89-11.65-7.03-.26-3.48,4.84-5.96,4.86-8.79.01-2.45-5.64-5.12-5.83-8.14-.16-2.56,5.08-6.99,4.41-10.4-.42-2.13-10.06-6.51-11.6-9.94-3.79,1.47-6.47,5.19-9.73,5.76-5.31.94-11.35-.32-16.71.29-1.88.21-3.65,2-5.1,1.97-2.62-.06-2.69-5.78-8.7-4.84-6.8,1.06-7.15,9.77-11.8,11.26-7.08,2.27-10.04-5.04-13.43-4.47l-4.53,7.04c.39.54.22,2.48.93,3.28,1.72,1.93,5.67,3.02,6.1,6.28-3.12,9.33,3.81,20.54-8.75,23.23-4.42.95-12.47,2.52-16.85,3.17-8.68,1.29-6.07-5.35-11.38-9.5-2.28-1.78-3.68-1.66-6.05-2.45-2.64-.89-1.74.34-5-2-.18-.13-1.12.34-1.75-.28-.52-.5.29-3.56-2.91-3.5-1.69.03-3.21,2.3-5.33,1.78-.05.09-1.38-.44-2.01.69-.94,1.67-2.32,9.75-1.96,11.74.27,1.52,1.66,2.61,1.94,4.13,1.02,5.49-3.01,9.38-4.73,14.17-2.02,5.64-3.21,12.24-5.48,17.52-.73,1.71-2.87,3-3.38,4.71-.11.36-.27,7.05-.22,7.57.35,3.17,3.17,4.68,3.67,7.2.76,3.79-2.12,6.74-.1,11.03,1.63,3.45,11.32,6.85,12.76,9.24,1.29,2.16,0,5.18.48,7.3.26,1.15,3.2,1.16,3.88,3.4,1.23,4.05-2.58,8.76-3.86,12.3-.37,3.55,7.54,3.15,9.52,3.05,5.05-.25,11.43-4.44,13.92-4.09,2.99.43,4.71,5.51,9.02,5.07,3.69-.38,5.47-6.53,7.53-7.54,2.65-1.3,7.93-.03,11.84-1.16,5.32-1.54,9.13-7.77,15.42-6.1,2.69.72,5.22,4.59,9.35,4.74,3.76.13,5.59-3.03,8.14-3.72,10.99-2.97,23.09,15.74,34.26,15.76-.14-5.6,14.01-14.07,14.79-16.7,1.56-5.25-1.45-10.01-1.78-14.81-.72-10.58.45-21.39-.98-31.97,1.97-3.98,4.44-7.57,8.97-8.52Z" fill="#104852"/>
  </g>
  <g id="Chaguanas">
    <path d="M304.28,433.68c-.43-3.26-4.39-4.34-6.1-6.28-.71-.8-.54-2.74-.93-3.28-3.35-4.65-11.25-2.67-16.41-3.08-2.17-.17-4.72-2.04-6.59-1.92-.11,0-1.91.93-2,1-1.36.99-4.21,4.58-6,6-.4.32-.64,1.34-1.57,1.88-3.73,2.14-14.08,1.46-18.43.12,1.96,7.67,4.31,8.14,0,16,2.12.52,3.65-1.75,5.33-1.78,3.21-.06,2.39,2.99,2.91,3.5.64.62,1.58.15,1.75.28,3.26,2.34,2.36,1.11,5,2,2.37.8,3.77.68,6.05,2.45,5.31,4.14,2.7,10.78,11.38,9.5,4.38-.65,12.43-2.22,16.85-3.17,12.56-2.69,5.63-13.9,8.75-23.23Z" fill="#a3bec1"/>
  </g>
  <g id="Sangre_Grande" data-name="Sangre Grande">
    <path d="M542.25,272.13c-3.46,2.14-16.58-4.53-18-3.01-.94,1.01,2.86,5.83-7.48,5.04-3.47-.26-8.04-3.04-11.06-2.92-3.6.14-6.08,2.49-11.75.68-2.67-.85-2.21-3.96-7.14-3.83-1.31.04-13,1.9-13.9,2.21-1.99.69-2.14,4.12-4.37,4.71-1.91.51-3.7-.94-5.59-.7-5.32.67-17.8,5.8-24.27,6.76-5.23.77-11.4-.67-16.71.29-3.03.55-13.45,4.47-17.73,5.77-.54,5.29,8.7,15.3,9.01,18.56.06.64-3.82,11.71-4.23,12.21-.78.94-5.81,1.31-8.3,3.2-3.87,2.94-5.28,9.85-10.9,12.1-4.68,1.87-20.08-2.5-21.44,1.57-3.07,9.2,6.77,5.32,11.15,6.57,10.02,2.87-2.01,24.3-1.27,30.2.87,6.92,10.18,6.37,9.03,20.14-.96,11.47-12.06,12.36-20.05,15.45,1.54,3.43,11.18,7.81,11.6,9.94.67,3.41-4.57,7.85-4.41,10.4.19,3.02,5.84,5.69,5.83,8.14-.01,2.83-5.12,5.31-4.86,8.79.46,6.14,11.77,1.39,11.65,7.03-.16,7.4-10.1,16.24-8.76,26.1.94,6.96,5.69,3.43,7.82,4.72,1.29.78.76,5.72,1.13,6.87.44,1.34,16.99,15.64,18.66,15.79,4.52.43,9.16-10.48,15.94-10.74,3.67-.14,8.75,3.37,12.87,2.98l44.54-2.04c-1.78-6.9-3.57-15.89-5-23v-22c7.63,2.9,8.61-2.61,13.39-6.67.65-.55,2.39.08,2.67-.92,2.34-8.38-5.42-13.56-4.02-20.87.4-2.07,2.41-3.16,2-5.99-.3-2.06-2.39-2.77-2.85-4.25-.76-2.46,1.45-7.88-2.2-7.3-1.77-12.53-8.02-28.81-8.76-40.74-.36-5.78,3.7-13.74,7.76-17.76,4.67-4.63,6.82-.27,11.45-.55,5.69-.34,4.14-5.33,6.09-7.92,1.18-1.56,3.52-1.42,4.23-2.27,1.18-1.42.77-6.43,2.76-8.74,1.29-1.5,3.69-1.49,4.93-3.07,1.19-1.52.89-3.93,3.02-5.98,2.35-2.26,7.14-2.76,8.59-6.36,2.35-5.8-.81-12.92,3.46-18.59,3.29-4.37,11.74-2.23,14.52-6.72,2.67-4.31-1.03-5.74-1.05-7.8-.02-1.57,2.73-3.27,2-5.49Z" fill="#087b90"/>
  </g>
  <g id="Arima">
    <path d="M355.25,391.13c-.22-1.64.42-3.85.01-5.33-.3-1.09-1.96-.58-2.01-.67-.28-.46.29-3.69-.21-5.28-1.18-3.81-9.01-6.6-12.8-5.72.09,12.16-6.56,28.38,13.28,23.78,6.41-1.49,2.76-4.13,1.72-6.77Z" fill="#47c9d6"/>
  </g>
  <g id="Tunapuna_-_Piarco" data-name="Tunapuna - Piarco">
    <path d="M404.25,287.13c-19.32,13.42-41.52,7.37-63.5,6.91-6.58.79-6.89,2.28-12.25-1.75-3.3-.78-7.34,1.12-13.24-1.17-.09,4.49-5.05,9.48-5.06,13.5,2.23,9.47,12.3,12.05,7.04,25.98-5.34,6.56-13.44-3.12-18.56-3.47-3.12-.21-4.13,2.19-6.16,2.75-7.38,2.04-12.44-3.94-16.81-3.71-2.11.11-6.98,6.26-9.29,7.61.35,6.83-2.18,14.02-1.1,20.78.96,5.79,12.41,11.75,7.94,19.56-.52,3.21-.58,9.76-.94,11.29-.16.75-3.63,1.62-3.06,4.71,6.66,8.3,4.82,19.05,5,29,8.37,3.95,18.16-.8,23,5l4.53-7.04c3.39-.57,6.35,6.74,13.43,4.47,4.65-1.49,5-10.2,11.8-11.26,6-.94,6.08,4.79,8.7,4.84,6.41-3.7,14.75-1.13,21.81-2.26,3.26-.58,5.94-4.29,9.73-5.76,7.99-3.1,19.09-3.98,20.05-15.45,1.15-13.76-8.16-13.22-9.03-20.14-.74-5.9,11.29-27.33,1.27-30.2-4.38-1.25-14.22,2.62-11.15-6.57,1.36-4.07,16.76.3,21.44-1.57,5.62-2.25,7.03-9.16,10.9-12.1,2.5-1.9,7.52-2.26,8.3-3.2.41-.5,4.29-11.57,4.23-12.21-.31-3.26-9.55-13.26-9.01-18.56ZM353.53,397.9c-19.84,4.6-13.2-11.62-13.28-23.78,3.79-.88,11.61,1.91,12.8,5.72.5,1.59-.07,4.82.21,5.28,3.37-.82,1.68,3.97,2,6,1.04,2.65,4.69,5.29-1.72,6.77Z" fill="#74b3ba"/>
  </g>
  <g id="San_Juan_-_Laventille" data-name="San Juan - Laventille">
    <path d="M318.04,318.84c-1-4.45-7.86-9.8-7.85-14.21,0-4.02,4.97-9.01,5.06-13.5-2.79-1.08-5.2-3.83-8.94-4.56-8.55-1.67-4.57,2.29-6.28,5.35-.44.79-13.2,11.1-14.03,11.46-6.06,2.63-8.44-2.96-10.72-1.81-.46.23-5.29,5.12-5.5,5.59-.8,1.81-.43,7.63-2.17,8.03-6.49,1.51-5.8-5.18-7.97-5.95-4.82-1.71-5.16,2.79-6.01,2.96-1.54.31-3.04-1.1-3.37-1.07-6.83.5-7.26,6.55-9.66,8.09-1.42.91-6.69,1.25-7.21,2.05-2.03,3.15,3.88,14.57-1.41,18.59-7.35.78-8.92,11.56-13.72,16.28.17.19-.46,1.99.2,2.74.96,1.08,6.89,1.4,5.8,6.26.31.35.73.64,1,1,1.53,5.28-.39,8.21-2,12.99,6.75-1.97,10.97,5.92,3,3,.93,4.64-2.45,2.73-6.01,3,.16.26-.34,1.51.1,1.86.77.6,4.35-.19,6.2.34.48.14,7.88,5.42,8.16,5.84,1.14,1.69,1.06,5.67,2.04,7.96,4.17,9.71,6.81,16.5,9.49,27.01,4.34,1.35,14.69,2.02,18.43-.12.94-.54,1.18-1.57,1.57-1.88,1.79-1.42,4.64-5.01,6-6,.09-.07,1.89-.99,2-1-.18-9.95,1.66-20.7-5-29,.02-.33-.06-.69,0-1,.67-3.29,2.8-2.6,3.06-3.71.36-1.53.42-8.08.94-11.29.15-.92,1.04-1.81,1.02-3.45-.09-7.17-8.09-10.68-8.96-16.11-1.08-6.76,1.46-13.96,1.1-20.78,2.31-1.35,7.18-7.5,9.29-7.61,4.38-.24,9.43,5.75,16.81,3.71,2.03-.56,3.04-2.96,6.16-2.75,5.13.35,13.22,10.03,18.56,3.47,1.58-1.94,1.4-9.14.81-11.77Z" fill="#104852"/>
  </g>
  <g id="Port_of_Spain" data-name="Port of Spain">
    <path d="M209.25,368.13c-.17-1.76,3.44-3.96,1.01-5.51-.43-.28-8.3-2.08-10.01-2.49,2.18.12,4.7,0,6-2,.66.03,1.34-.03,2,0,8.31.34,10.2.43,16,7,.31.35.73.64,1,1,1.53,5.28-.39,8.21-2,12.99,6.75-1.97,10.97,5.92,3,3,.93,4.64-2.45,2.73-6.01,3-.98-1.62-2.04-1.57-1.97-4.42.09-3.6,3.64-3.42,2.94-5.05-1.72-4-5.38-3.16-8.5-3.56-1.86-.24-4.03,1.21-3.47-1.98v-2Z" fill="#c2e6eb"/>
  </g>
  <g id="Diego_Martin" data-name="Diego Martin">
    <g>
      <path d="M135.12,347.27c-3.59-5.79-27.07,13.44-4.88,11.86l-.99-4.99,5.99,1c-.37-1.91.64-6.62-.13-7.87Z" fill="#1d7281"/>
      <path d="M89.25,352.13c.06.85,1,.93,1,1,.04.61.09,1.42,0,2-3.78,1.49-8.09,5.14-4.07,8.56,4.18,3.55,3.56.06,4.83-.48,1.95-.84,2.76-.7,5.24-2.08.34-.19,1.4.16,2,0,.58-2.3-.78-1.95-2-3-1.13-.96-1.31-2.65-4-2,1.11-3.63,4.81-4.39,6-2,.19.39-.3,1.6.05,1.95.33.33,1.46-.11,1.95.05.47.15,4.8,2.3,3.99-.48-1.75-5.99-15.7-13-14.99-3.52Z" fill="#1d7281"/>
      <path d="M109.26,344.13c-.38,2.02,1.82,2.62,2,4.52.18,1.92-1.51,4.29-1,6.47,7.48-.25,6.39-10.75-1-10.99Z" fill="#1d7281"/>
      <path d="M141.26,365.14c-1.96,2.75,8.32,6.48,9.99,1.48.34-4.12-9.46-2.22-9.99-1.48Z" fill="#1d7281"/>
      <path d="M233.18,321.69c-.21-.94-.59-2.23-1.25-3.53-5.36-1.92-10.23-7.84-13.68.97-6.4-.88-9.75-4.14-15,2-.97.11-2.01-.02-3,0-5.72-4.75-8.85.17-13.56.94-2.51.41-5.78.05-8.44.06-1,0-2,0-3,0-2.83-.03-3.47-1.96-7.92.59-4.96,2.85-8.72,8.46-13.05,11.95-.57.46-3.76,2.43-4.03,2.46.15,3.37.38,7.19-3,9-.99,0-2.02.07-3,0-.66-.05-1.42.11-2,0-1.85,3.76.17,7.12.01,10.99.88.92,12.91-1.41,14.99,1.01.03.66-.04,1.34,0,2,.26,3.86,1.22,4.74,5.45,3.99,6.4-1.12,1.24-7.59,1.54-7.98.24-.3,6.49-2.06,7.45-2,2.57.17,3.98,2.77,6.09,2.97,1.6.15,3.58-.94,5.46-.99.33,0,.67,0,1,0,1.04,1.83,2.75,1.69,4.5,2,3.57.64,7.98,1.17,11.5,2,2.18.12,4.7,0,6-2,.66.03,1.34-.03,2,0,8.31.34,10.2.43,16,7,1.1-4.86-4.84-5.18-5.8-6.26-.66-.74-.03-2.55-.2-2.74,4.81-4.72,6.37-15.5,13.72-16.28,5.07-3.85-.16-14.52,1.21-18.16Z" fill="#1d7281"/>
    </g>
  </g>
</svg>